<?xml version="1.0" standalone="no"?>
<!DOCTYPE svg PUBLIC "-//W3C//DTD SVG 20010904//EN"
 "http://www.w3.org/TR/2001/REC-SVG-20010904/DTD/svg10.dtd">
<svg version="1.0" xmlns="http://www.w3.org/2000/svg"
 width="998.000000pt" height="785.000000pt" viewBox="0 0 998.000000 785.000000"
 preserveAspectRatio="xMidYMid meet">

<g transform="translate(0.000000,785.000000) scale(0.100000,-0.100000)"
fill="#000000" stroke="none">
<path d="M6540 6334 c-411 -188 -520 -234 -520 -221 0 2 9 43 20 93 22 99 24
124 11 124 -4 0 -94 -50 -199 -111 l-191 -111 -128 -4 c-108 -3 -132 -7 -155
-24 -15 -11 -34 -20 -43 -20 -27 0 -85 -28 -86 -42 0 -7 -18 -28 -40 -47 -45
-39 -47 -35 -23 69 8 38 14 77 12 86 -2 11 -161 -103 -551 -396 -301 -227
-546 -414 -544 -416 4 -5 157 61 750 323 32 14 60 23 63 20 3 -3 -6 -63 -20
-133 -14 -70 -24 -129 -21 -132 4 -4 20 6 229 141 l106 68 60 -37 c42 -26 76
-38 111 -42 50 -5 52 -6 94 -71 79 -123 162 -348 153 -419 -2 -21 -12 -28 -53
-39 -82 -24 -144 -78 -182 -160 l-24 -52 -54 41 c-29 22 -56 45 -58 52 -3 7
-1 32 4 57 4 24 6 65 2 91 -4 32 -1 53 7 63 21 25 7 100 -26 139 -16 19 -38
47 -48 61 -24 35 -133 85 -185 85 -22 0 -56 -8 -76 -17 -33 -16 -37 -16 -64 0
-45 27 -109 22 -180 -14 -34 -17 -69 -43 -78 -57 -10 -15 -32 -44 -50 -65 -27
-30 -33 -45 -33 -81 0 -25 5 -48 11 -52 7 -4 9 -26 5 -63 -3 -31 -2 -73 3 -95
12 -50 8 -59 -48 -99 -64 -46 -89 -102 -73 -163 7 -24 12 -51 12 -59 0 -21
-76 -95 -110 -106 -37 -14 -60 -63 -60 -131 0 -53 -1 -55 -39 -76 -100 -57
-172 -177 -179 -304 l-5 -77 -27 38 c-38 53 -115 101 -159 101 -20 0 -49 -9
-66 -20 -16 -11 -45 -20 -62 -20 -61 0 -161 -40 -194 -78 -26 -29 -30 -40 -25
-71 3 -20 9 -64 14 -98 5 -42 15 -70 30 -86 12 -13 22 -33 22 -44 0 -11 9 -32
20 -46 11 -14 20 -31 20 -37 0 -32 34 -79 73 -100 23 -13 71 -48 107 -77 96
-80 153 -103 277 -115 149 -13 239 8 322 78 17 14 38 39 47 55 24 47 34 34 34
-42 0 -88 18 -131 63 -147 75 -27 214 -42 381 -42 139 0 184 -4 238 -19 147
-42 247 -34 319 26 35 30 68 94 69 132 0 14 7 32 15 41 8 9 30 46 50 84 43 83
45 132 10 202 -14 27 -25 53 -25 57 0 5 27 46 60 91 84 115 119 216 135 389
l7 67 54 35 c99 63 171 154 196 249 10 39 17 47 47 57 46 15 98 47 104 63 27
70 13 266 -29 413 -56 198 -213 469 -354 617 l-80 83 0 60 c0 53 3 63 25 77
44 29 48 23 43 -69 -4 -55 -2 -85 4 -85 6 0 142 98 302 218 160 120 357 266
438 326 142 104 180 136 162 136 -5 0 -83 -34 -174 -76z m-65 -73 c-9 -8 -131
-93 -523 -364 -45 -31 -85 -57 -88 -57 -4 0 -4 31 -2 70 3 38 3 71 1 74 -3 3
-47 -18 -99 -45 -106 -57 -97 -62 -108 53 l-6 58 160 80 c88 44 163 80 166 80
6 0 -2 -97 -13 -152 -4 -21 -2 -28 10 -28 9 0 125 54 257 120 234 116 265 130
245 111z m-863 -208 c6 -16 12 -59 12 -98 l1 -70 -31 -3 c-29 -3 -34 1 -52 40
-23 47 -38 130 -27 147 3 6 24 11 46 11 34 0 41 -4 51 -27z m-125 -51 c7 -34
18 -72 24 -84 16 -31 -20 -60 -70 -56 -32 3 -37 7 -49 43 -15 44 -10 129 9
152 7 8 25 13 43 11 29 -3 31 -6 43 -66z m-134 -34 c2 -52 0 -57 -18 -56 -11
0 -27 -2 -36 -6 -24 -10 -32 9 -24 60 5 33 12 48 28 54 41 17 49 8 50 -52z
m-243 15 c0 -5 -4 -35 -9 -68 -5 -33 -12 -79 -15 -103 l-6 -43 31 3 c41 4 60
-22 41 -53 -12 -18 -11 -26 4 -55 10 -18 16 -35 14 -37 -17 -15 -218 -116
-222 -112 -3 3 3 47 13 98 21 105 23 127 10 127 -5 0 -109 -47 -230 -105 -348
-165 -373 -176 -378 -171 -5 5 27 29 332 246 127 90 266 190 310 222 75 54
105 69 105 51z m134 -80 c5 -42 3 -51 -23 -83 -34 -42 -47 -38 -44 12 2 37 37
118 52 118 4 0 11 -21 15 -47z m92 -58 c6 -24 3 -47 -11 -106 -5 -20 -2 -27
18 -36 22 -10 24 -9 20 12 -4 17 1 24 19 28 35 10 88 8 131 -4 32 -9 42 -8 57
6 13 12 103 44 128 45 1 0 2 -13 2 -28 0 -15 5 -33 11 -39 16 -16 4 -30 -34
-37 -19 -3 -60 -22 -92 -41 -31 -19 -59 -35 -60 -35 -2 0 -5 7 -7 16 -2 12
-11 5 -28 -22 -31 -48 -71 -55 -151 -25 -62 24 -149 94 -149 121 0 15 63 109
104 157 18 20 35 15 42 -12z m454 -218 c53 -50 103 -114 159 -204 28 -46 51
-85 51 -88 0 -3 -28 -5 -63 -5 -77 0 -160 -21 -230 -57 -28 -15 -55 -29 -59
-31 -4 -2 -26 36 -48 84 -22 49 -55 110 -72 137 l-31 48 34 35 c52 55 149 105
219 113 3 1 21 -14 40 -32z m-815 -309 c-14 -10 -25 -26 -25 -34 0 -11 7 -9
33 6 39 24 54 26 36 3 -13 -15 -11 -15 26 -8 55 12 103 11 117 -3 9 -9 0 -12
-39 -12 -29 0 -55 -4 -58 -10 -4 -6 9 -10 32 -10 87 -1 163 -65 163 -137 0
-35 -8 -41 -28 -21 -14 14 -15 8 -3 -25 12 -32 3 -42 -21 -20 -22 20 -22 16
-3 -30 8 -20 15 -64 15 -98 0 -58 2 -64 36 -93 92 -79 94 -83 94 -125 0 -23
-3 -41 -7 -41 -4 0 -24 17 -45 37 -45 43 -50 33 -10 -17 58 -70 70 -124 36
-161 -20 -22 -34 -16 -34 14 0 26 -26 69 -69 115 -41 44 -39 24 4 -46 32 -53
56 -122 41 -122 -3 0 -15 19 -27 42 -11 22 -38 63 -59 90 -34 42 -38 53 -36
97 2 36 9 57 29 81 23 27 27 40 27 99 0 63 -3 71 -40 121 -22 29 -40 58 -40
64 0 5 -8 18 -17 29 -13 15 -15 21 -5 24 6 3 12 9 12 15 0 7 -17 9 -45 6 -42
-5 -58 3 -35 17 14 9 12 25 -3 25 -7 0 -29 -11 -49 -25 -45 -31 -47 -31 -41
-2 5 21 5 21 -13 5 -17 -17 -19 -17 -37 0 -19 16 -19 16 -13 -5 9 -29 3 -29
-42 2 -20 14 -42 25 -49 25 -15 0 -17 -16 -3 -25 23 -14 7 -22 -35 -17 -28 3
-45 1 -45 -6 0 -6 6 -12 13 -15 9 -3 7 -9 -5 -24 -10 -11 -18 -24 -18 -29 0
-6 -18 -35 -40 -64 -37 -50 -40 -58 -40 -121 0 -59 3 -72 27 -100 21 -25 28
-45 30 -81 1 -42 -3 -54 -43 -105 -24 -31 -49 -71 -56 -90 -7 -18 -16 -33 -21
-33 -17 0 3 65 39 123 20 31 34 62 32 67 -5 14 -88 -89 -94 -119 -12 -55 -13
-56 -36 -33 -34 34 -28 83 20 145 58 77 60 87 8 37 -35 -34 -49 -42 -55 -31
-16 25 6 85 40 111 82 63 89 74 89 140 0 33 7 77 15 97 20 46 19 50 -5 28 -28
-25 -33 -15 -14 31 16 38 16 39 -3 22 -27 -25 -33 -23 -33 15 0 72 76 136 163
137 23 0 36 4 32 10 -3 6 -27 10 -53 10 -44 1 -46 2 -27 16 20 15 52 14 114
-3 17 -4 22 -3 17 5 -10 17 16 15 42 -4 33 -23 30 8 -4 35 -24 19 -25 21 -7
21 11 0 32 -9 46 -20 27 -21 47 -26 47 -11 0 11 62 41 72 34 5 -2 -3 -14 -17
-25z m1055 -38 c12 -23 13 -23 -65 -20 -76 2 -174 -22 -243 -61 -52 -29 -72
-30 -72 -6 0 19 98 74 160 91 30 8 90 15 132 15 67 1 79 -2 88 -19z m23 -79
c20 -8 31 -29 60 -118 43 -129 57 -209 57 -325 0 -75 -3 -91 -20 -108 -18 -18
-40 -27 -40 -16 0 2 7 21 16 42 16 39 16 156 0 183 -15 23 -26 -2 -26 -58 0
-76 -25 -145 -66 -185 -39 -38 -43 -50 -14 -41 26 8 25 -5 -1 -56 -33 -65 -94
-124 -157 -152 -61 -27 -137 -45 -130 -31 2 5 16 35 31 66 21 43 31 87 43 184
8 70 12 129 10 131 -7 7 -42 -67 -56 -116 -17 -65 -72 -144 -132 -192 -61 -48
-154 -96 -165 -86 -4 4 7 37 25 72 36 74 22 77 -26 6 -48 -70 -78 -151 -102
-279 -11 -62 -29 -131 -39 -155 -22 -50 -77 -102 -140 -130 -62 -28 -192 -29
-279 -3 -72 22 -105 54 -124 119 l-12 42 -5 -33 -6 -34 -21 24 c-43 47 -74
120 -74 175 0 29 2 53 4 53 5 0 58 -48 133 -121 92 -90 125 -90 215 -1 31 31
73 72 92 90 20 18 42 47 50 66 7 18 30 54 50 80 20 26 39 60 42 74 11 52 24
71 62 96 44 27 58 57 66 136 14 142 30 188 88 262 27 34 140 118 159 118 4 0
17 -20 28 -44 10 -24 29 -49 40 -55 25 -14 25 -12 7 36 -8 21 -17 71 -21 110
-6 71 -5 74 22 99 61 57 138 82 250 83 45 1 93 -3 106 -8z m-1218 -121 c59
-25 80 -25 143 1 31 13 61 19 76 15 30 -7 42 -37 22 -52 -22 -16 -20 -27 4
-21 11 3 22 1 25 -3 9 -14 -144 -92 -165 -85 -11 4 -20 3 -20 -2 0 -19 38
-126 39 -110 1 19 9 21 31 7 9 -6 17 -5 22 3 4 6 23 12 42 14 19 1 49 9 66 18
26 14 31 21 26 41 -10 40 12 27 23 -13 14 -51 15 -48 -18 -85 -16 -19 -31 -46
-33 -62 l-3 -28 -27 21 c-14 12 -34 21 -45 21 -10 0 -33 9 -50 20 -34 20 -46
13 -18 -10 17 -14 16 -31 0 -32 -6 0 -19 -7 -30 -14 -31 -22 -55 -18 -124 23
-2 2 3 11 12 21 27 30 20 35 -17 13 -18 -12 -42 -21 -53 -21 -10 0 -28 -7 -39
-15 -26 -20 -34 -19 -34 6 0 12 -13 37 -30 56 -33 37 -35 46 -19 92 12 33 35
45 24 12 -3 -11 1 -25 10 -35 19 -19 81 -37 101 -29 7 3 17 -2 20 -11 4 -11
11 -13 23 -6 12 6 22 5 29 -2 12 -12 11 -14 31 58 15 55 14 56 -9 49 -12 -4
-45 8 -95 35 -76 42 -89 61 -38 53 l28 -4 -22 17 c-27 20 -29 39 -5 53 25 15
45 13 97 -9z m-75 -121 c67 -41 64 -55 -6 -24 -31 14 -69 25 -85 25 -29 0 -39
14 -16 23 29 12 60 5 107 -24z m394 25 c27 -10 18 -22 -21 -27 -21 -2 -62 -14
-91 -26 -65 -26 -59 -11 11 29 53 30 73 35 101 24z m-363 -85 c23 -12 16 -29
-12 -29 -28 0 -61 19 -54 31 8 12 41 12 66 -2z m291 -4 c2 -14 -46 -29 -68
-21 -18 7 -18 8 1 22 22 16 65 15 67 -1z m-287 -175 c-6 -18 -2 -20 37 -20 24
0 49 -5 56 -12 9 -9 18 -9 37 0 14 7 42 12 61 12 31 0 35 3 29 20 -5 15 -2 20
12 20 30 0 59 -26 91 -82 16 -29 39 -63 51 -75 41 -43 61 -87 61 -135 0 -27
-4 -48 -10 -48 -5 0 -10 4 -10 9 0 5 -20 33 -45 62 -25 29 -50 70 -56 92 -5
21 -23 52 -38 70 l-29 31 -137 1 -137 0 -28 -32 c-16 -18 -34 -49 -39 -70 -6
-22 -31 -63 -56 -92 -25 -29 -45 -57 -45 -62 0 -5 -5 -9 -11 -9 -8 0 -10 18
-7 55 4 43 12 66 36 98 18 23 44 62 60 86 39 63 77 101 102 101 17 0 20 -4 15
-20z m-25 -109 c0 -6 -4 -13 -10 -16 -14 -8 -13 -45 1 -45 7 0 9 -10 5 -25 -8
-30 7 -33 27 -5 46 65 162 66 221 1 26 -28 38 -27 30 4 -4 15 -2 25 5 25 15 0
14 33 -1 48 -6 6 -8 15 -4 19 13 13 53 -47 60 -88 3 -21 19 -53 35 -71 15 -18
33 -43 40 -55 14 -27 15 -73 1 -73 -5 0 -10 7 -10 15 0 34 -18 12 -24 -29 -4
-25 -21 -73 -39 -108 l-32 -63 -5 44 -5 45 -23 -55 c-23 -57 -89 -134 -124
-145 -38 -12 -99 44 -140 126 -38 74 -38 75 -38 37 0 -25 -4 -36 -11 -31 -18
10 -58 105 -65 151 -6 40 -24 61 -24 28 0 -8 -4 -15 -10 -15 -26 0 -1 90 34
119 8 7 25 38 36 69 12 32 28 67 36 80 15 22 34 30 34 13z m-303 -123 c20 -18
23 -31 23 -90 l0 -68 -34 0 c-33 0 -33 1 -39 53 -4 28 -4 63 -1 77 14 59 16
61 51 28z m-104 -35 c3 -5 8 -37 11 -73 7 -65 7 -65 -24 -83 -27 -16 -31 -17
-36 -2 -10 25 1 132 15 149 15 17 27 20 34 9z m192 -55 c4 -18 18 -53 31 -77
13 -24 22 -46 20 -48 -2 -3 -23 8 -45 23 -42 28 -50 53 -35 112 9 32 21 27 29
-10z m-18 -118 c88 -53 102 -173 29 -246 -83 -83 -216 -53 -261 58 -27 68 1
148 67 188 44 26 122 27 165 0z m-274 -83 c-8 -87 12 -223 47 -318 17 -45 30
-100 30 -126 0 -39 2 -44 18 -38 45 19 72 -8 72 -73 0 -37 -24 -102 -39 -102
-5 0 -19 20 -31 45 -12 25 -25 45 -29 45 -5 0 -11 -22 -14 -48 -6 -52 -34
-132 -47 -132 -4 0 -7 24 -7 53 0 92 -41 154 -153 229 -23 15 -24 17 -6 24 10
4 45 3 77 -2 45 -8 56 -7 48 2 -5 7 -22 15 -37 19 -52 13 -69 32 -87 99 -38
140 9 283 118 364 17 12 34 22 39 22 4 0 5 -28 1 -63z m1374 -88 c42 -16 73
-49 73 -78 0 -46 -86 -158 -144 -188 -16 -8 -49 -18 -74 -22 -42 -6 -47 -10
-84 -71 -22 -36 -61 -87 -87 -113 l-48 -48 -36 17 c-42 20 -42 20 -21 62 27
55 13 71 -20 24 -16 -23 -33 -42 -38 -42 -12 0 -158 76 -184 95 -17 13 -9 14
69 15 155 0 271 63 353 191 97 150 158 190 241 158z m-1675 -146 c27 -27 48
-56 48 -68 0 -24 -18 -45 -37 -45 -19 0 -72 61 -73 83 0 23 -18 58 -39 75 -14
12 -11 13 19 7 23 -3 51 -21 82 -52z m708 -30 c32 -71 90 -163 102 -163 4 0
-9 29 -28 65 -20 36 -34 68 -31 71 2 3 31 -23 63 -57 109 -114 347 -250 571
-325 79 -27 160 -34 130 -11 -16 11 -12 17 37 66 l55 55 16 -37 c49 -119 -38
-192 -227 -190 -48 1 -96 4 -108 8 -11 4 -20 2 -20 -4 0 -18 112 -45 193 -45
42 -1 77 -3 77 -7 0 -12 -97 -57 -148 -68 -77 -16 -139 -14 -228 9 -170 44
-282 118 -364 246 -23 35 -44 64 -45 64 -9 0 17 -65 45 -119 45 -84 113 -143
223 -197 166 -80 350 -94 466 -34 49 24 51 25 51 2 0 -24 -57 -77 -99 -91 -71
-23 -143 -11 -471 85 -136 39 -195 101 -291 304 -38 80 -92 189 -120 242 -27
54 -47 102 -44 108 3 5 19 10 35 10 23 0 35 -9 58 -42 65 -94 95 -113 46 -30
-33 56 -37 118 -9 138 10 8 22 14 27 14 4 0 21 -30 38 -67z m-808 23 c16 -36
4 -56 -34 -57 -18 -1 -44 -4 -58 -8 -18 -5 -4 -9 49 -13 62 -5 78 -10 93 -28
11 -13 18 -33 16 -44 -3 -18 -13 -22 -62 -28 -84 -11 -94 -27 -13 -21 61 5 67
4 92 -21 15 -15 25 -32 23 -38 -3 -7 -31 -21 -64 -32 -68 -22 -59 -32 18 -17
60 10 78 2 78 -34 0 -18 -15 -32 -57 -59 -70 -43 -43 -49 32 -8 43 23 50 32
53 60 2 19 -4 44 -13 59 -22 33 -9 45 16 14 25 -30 25 -91 0 -140 -21 -41 -88
-91 -122 -91 -21 0 -21 1 -6 18 27 29 21 30 -40 9 -43 -15 -70 -18 -103 -13
-55 8 -104 44 -105 78 -1 14 -11 38 -23 53 -12 15 -22 40 -22 55 0 15 -10 36
-25 50 -27 25 -31 53 -15 94 8 21 6 27 -10 36 -37 20 -24 70 27 101 49 30 117
47 196 48 62 1 68 -1 79 -23z m563 -31 c24 -23 34 -55 17 -55 -5 0 -20 13 -35
28 -46 48 -28 74 18 27z m-357 -74 c16 -52 15 -63 -5 -59 -19 3 -32 49 -25 81
7 28 18 20 30 -22z m-58 -67 c0 -28 -4 -35 -16 -32 -27 5 -40 34 -25 52 23 28
41 19 41 -20z m1570 -10 c0 -7 -56 -90 -94 -137 -17 -22 -48 -52 -69 -67 -37
-27 -40 -28 -75 -13 -56 23 -57 28 -9 57 25 14 68 52 96 83 39 43 63 61 94 70
52 14 57 14 57 7z m-1030 -124 c6 -11 7 -20 2 -20 -10 0 -32 21 -32 32 0 16
19 8 30 -12z m-421 -41 c44 -61 50 -116 17 -182 -30 -60 -56 -82 -119 -99 -56
-15 -105 -2 -168 44 l-44 32 58 8 c79 10 135 43 175 102 24 36 32 59 32 92 0
24 4 44 10 44 5 0 23 -18 39 -41z m75 -34 c35 -73 10 -185 -53 -238 -49 -41
-72 -34 -28 8 21 20 44 50 53 67 24 47 22 134 -6 188 -22 43 -22 44 -2 27 11
-11 28 -34 36 -52z m446 -157 c0 -20 92 -117 145 -154 30 -20 55 -39 55 -42 0
-7 -153 7 -213 19 -74 16 -97 33 -97 73 0 18 5 47 11 64 8 24 7 41 -6 78 -17
50 -14 99 7 139 10 17 16 8 55 -74 23 -51 43 -98 43 -103z"/>
<path d="M4393 4250 c-37 -22 -63 -67 -63 -107 0 -60 64 -123 125 -123 62 0
125 63 125 125 0 63 -63 125 -127 125 -15 0 -42 -9 -60 -20z m122 -35 c46 -45
24 -125 -40 -141 -82 -20 -140 82 -80 141 33 34 87 34 120 0z"/>
<path d="M6693 2915 c-79 -14 -164 -50 -204 -87 -110 -99 -76 -302 62 -373 46
-24 25 -35 -59 -33 l-77 3 3 -49 c6 -127 102 -241 237 -282 87 -26 236 -36
360 -24 267 24 377 107 379 283 0 61 -4 80 -26 118 -15 25 -46 59 -70 75 l-43
29 55 3 c30 2 58 7 63 11 4 4 2 32 -4 62 -33 157 -113 233 -276 265 -92 17
-301 17 -400 -1z m399 -39 c120 -26 185 -74 218 -163 35 -94 36 -93 -82 -93
l-103 1 -20 32 c-33 52 -64 61 -205 60 -137 -1 -204 -14 -219 -41 -23 -44 17
-57 209 -72 313 -23 428 -71 461 -192 12 -46 5 -118 -16 -158 -33 -63 -115
-111 -222 -129 -285 -48 -529 2 -610 124 -24 36 -55 126 -47 134 8 9 160 14
189 7 13 -3 30 -18 37 -33 7 -14 31 -36 53 -47 35 -18 58 -21 175 -21 121 0
140 2 182 23 48 24 61 41 52 67 -13 33 -19 34 -294 55 -145 11 -211 25 -276
58 -116 59 -149 205 -69 301 33 38 104 71 190 86 96 18 314 18 397 1z m-40
-217 c58 -31 -24 -35 -245 -12 -66 7 -64 20 3 26 65 7 220 -2 242 -14z m-122
-275 c69 -4 136 -11 150 -16 l25 -10 -30 -16 c-24 -13 -59 -17 -167 -17 -123
0 -139 2 -165 21 -15 12 -30 29 -32 39 -3 16 3 17 45 12 27 -4 105 -10 174
-13z"/>
<path d="M2848 2908 c-28 -22 -389 -821 -375 -830 15 -10 268 -10 283 0 7 4
23 30 36 57 l23 50 225 0 225 0 23 -50 c13 -27 29 -53 36 -57 15 -10 268 -10
283 0 9 5 -41 124 -173 412 -102 223 -190 411 -196 418 -8 9 -59 12 -192 12
-130 0 -187 -4 -198 -12z m359 -36 c11 -7 340 -717 346 -745 1 -7 -34 -11
-103 -11 l-105 -1 -23 45 c-12 25 -28 50 -36 55 -8 6 -101 8 -255 5 l-242 -5
-27 -50 -27 -50 -85 -2 c-47 -2 -95 -1 -107 2 l-22 5 28 63 c209 458 314 683
324 689 16 10 318 10 334 0z"/>
<path d="M3012 2708 c-14 -18 -142 -303 -142 -317 0 -8 50 -11 170 -11 124 0
170 3 170 12 0 13 -128 297 -143 316 -5 6 -17 12 -27 12 -10 0 -22 -6 -28 -12z
m89 -162 c27 -59 49 -112 49 -117 0 -5 -49 -9 -110 -9 -60 0 -110 4 -110 9 0
5 14 40 31 78 17 37 40 87 50 111 10 24 24 42 30 40 6 -2 33 -52 60 -112z"/>
<path d="M3511 2906 c-8 -9 -11 -52 -9 -127 l3 -114 150 -5 150 -5 5 -290 5
-290 129 -3 c86 -2 133 1 142 9 11 9 14 65 14 295 l0 283 148 3 147 3 3 119
c2 89 -1 121 -10 128 -7 4 -205 8 -439 8 -353 0 -429 -2 -438 -14z m827 -32
c22 -6 23 -10 20 -88 l-3 -81 -145 -5 -145 -5 -3 -285 c-1 -182 -6 -286 -13
-290 -8 -6 -137 -6 -186 -1 -10 1 -13 64 -13 279 0 152 -4 282 -8 289 -5 9
-52 13 -152 15 l-145 3 -3 79 c-2 57 1 82 10 87 15 10 751 12 786 3z"/>
<path d="M4487 2913 c-4 -3 -7 -192 -7 -419 l0 -414 23 -5 c12 -3 254 -4 537
-3 l514 3 31 55 31 55 204 3 c113 1 214 0 226 -2 12 -3 28 -23 40 -47 31 -69
31 -69 180 -69 109 0 136 3 140 15 5 12 -202 477 -337 760 l-34 70 -192 3
c-191 2 -192 2 -207 -21 -9 -12 -84 -171 -167 -352 -83 -182 -163 -355 -178
-385 l-26 -55 -5 110 -5 110 -242 3 -243 2 0 289 c0 254 -2 290 -16 295 -21 8
-259 8 -267 -1z m243 -328 l5 -290 240 -5 240 -5 3 -79 c2 -57 -1 -82 -10 -87
-15 -10 -631 -12 -665 -3 l-23 6 0 372 c0 205 3 376 7 380 4 4 50 5 103 4 l95
-3 5 -290z m1285 284 c2 -2 21 -44 43 -94 23 -49 99 -216 170 -370 71 -154
128 -283 125 -287 -2 -4 -49 -6 -106 -5 l-102 2 -25 47 c-14 26 -29 50 -32 53
-9 10 -502 7 -506 -2 -2 -5 -13 -28 -25 -53 l-22 -45 -103 0 c-57 0 -105 2
-107 6 -2 3 72 172 165 375 l169 369 53 5 c56 6 297 5 303 -1z"/>
<path d="M5742 2563 c-40 -87 -72 -164 -72 -170 0 -10 41 -13 170 -13 130 0
170 3 170 13 -1 6 -33 82 -73 167 -63 136 -75 155 -98 158 -24 3 -30 -7 -97
-155z m156 -15 c29 -62 52 -116 52 -120 0 -5 -50 -8 -111 -8 l-111 0 6 23 c10
39 95 217 104 217 5 0 32 -51 60 -112z"/>
<path d="M2666 1724 c-9 -24 -7 -187 3 -203 14 -23 31 -2 31 38 l0 38 52 5
c57 6 88 32 88 74 0 44 -33 64 -104 64 -49 0 -65 -4 -70 -16z m122 -26 c32
-32 -3 -72 -56 -66 -28 3 -40 32 -28 64 7 17 67 19 84 2z"/>
<path d="M3012 1715 c-76 -64 -31 -205 65 -205 74 0 113 43 113 126 0 37 -6
51 -29 75 -39 39 -105 41 -149 4z m131 -43 c17 -29 18 -39 8 -71 -18 -61 -75
-78 -116 -36 -32 31 -33 82 -4 119 17 22 28 26 57 24 29 -2 40 -10 55 -36z"/>
<path d="M3330 1729 c0 -22 52 -204 61 -214 14 -14 30 8 54 77 12 35 26 62 30
61 5 -1 21 -32 35 -69 40 -107 51 -99 92 63 11 46 18 86 15 90 -15 14 -36 -23
-47 -83 -7 -37 -17 -63 -23 -61 -6 2 -22 36 -35 75 -13 41 -29 72 -37 72 -8 0
-23 -30 -37 -71 -13 -39 -28 -71 -33 -72 -5 -1 -13 14 -17 33 -25 98 -30 110
-43 110 -8 0 -15 -5 -15 -11z"/>
<path d="M3767 1733 c-4 -3 -7 -52 -7 -109 0 -84 3 -103 16 -108 27 -10 132
-7 140 5 8 14 -14 29 -33 22 -7 -3 -29 -2 -48 1 -30 6 -35 11 -35 36 0 28 1
29 57 32 78 4 83 26 6 30 -57 3 -58 3 -61 36 l-3 32 60 0 c48 0 61 3 61 15 0
12 -15 15 -73 15 -41 0 -77 -3 -80 -7z"/>
<path d="M4077 1733 c-9 -8 -9 -208 0 -216 14 -14 33 17 33 54 0 37 2 39 30
39 34 0 67 -28 76 -65 6 -23 10 -26 32 -24 9 1 4 26 -15 66 -14 29 -13 34 1
48 21 22 20 68 -2 88 -13 12 -37 17 -84 17 -35 0 -68 -3 -71 -7z m128 -58 c0
-29 -2 -30 -47 -33 l-48 -3 0 36 0 36 48 -3 c45 -3 47 -4 47 -33z"/>
<path d="M4607 1722 c-20 -22 -22 -65 -3 -81 7 -6 30 -17 51 -24 79 -28 71
-66 -15 -75 -56 -5 -64 -25 -13 -30 83 -8 142 42 109 93 -8 12 -34 29 -57 37
-43 14 -70 41 -56 55 4 4 29 10 55 13 62 7 60 24 -4 28 -39 2 -54 -1 -67 -16z"/>
<path d="M4937 1729 c-44 -26 -61 -117 -30 -169 29 -50 105 -66 152 -34 25 18
51 71 51 105 0 34 -29 85 -56 98 -31 14 -93 14 -117 0z m111 -39 c32 -30 30
-93 -3 -125 -40 -41 -99 -25 -114 32 -24 85 57 149 117 93z"/>
<path d="M5256 1725 c-11 -30 -7 -190 6 -203 15 -15 134 -16 143 -1 11 17 11
17 -107 28 -4 1 -9 42 -10 93 -2 56 -7 93 -14 95 -6 2 -14 -3 -18 -12z"/>
<path d="M5550 1652 c0 -75 3 -92 20 -110 39 -42 127 -41 154 1 32 49 32 197
0 197 -11 0 -14 -18 -14 -78 0 -86 -10 -107 -52 -117 -21 -5 -33 -1 -52 19
-23 22 -26 33 -26 101 0 60 -3 75 -15 75 -12 0 -15 -16 -15 -88z"/>
<path d="M5887 1734 c-12 -12 4 -24 34 -24 l29 0 0 -87 c0 -151 37 -158 42 -8
l3 90 33 3 c20 2 32 8 29 15 -4 13 -158 23 -170 11z"/>
<path d="M6202 1628 c2 -67 7 -113 13 -113 6 0 11 46 13 113 2 96 0 112 -13
112 -13 0 -15 -16 -13 -112z"/>
<path d="M6427 1729 c-41 -24 -60 -110 -36 -162 40 -87 187 -66 205 31 8 44
-11 107 -39 127 -24 17 -103 20 -130 4z m111 -39 c32 -30 30 -93 -3 -125 -30
-30 -54 -31 -89 -4 -21 17 -26 29 -26 65 0 75 67 111 118 64z"/>
<path d="M6748 1718 c-6 -44 7 -203 17 -203 6 0 11 35 13 78 2 43 7 77 12 75
4 -2 32 -37 62 -78 75 -105 83 -101 83 35 0 91 -3 110 -15 110 -11 0 -16 -17
-20 -70 l-5 -70 -29 40 c-17 22 -40 55 -53 73 -28 38 -60 43 -65 10z"/>
<path d="M7107 1722 c-20 -22 -22 -65 -3 -81 7 -6 30 -17 51 -24 44 -15 66
-40 49 -57 -6 -6 -34 -13 -63 -17 -56 -6 -65 -26 -15 -31 48 -6 104 16 115 45
13 36 -10 68 -62 85 -82 27 -76 68 9 68 62 0 50 24 -14 28 -39 2 -54 -1 -67
-16z"/>
</g>
</svg>
