<svg height="800pt" viewBox="360.88 161.1 478.45 478.41" width="1600" xmlns="http://www.w3.org/2000/svg"><path d="m413.51 489.43c14.6-.15 29.19.32 43.8.13 16.67 18.53 33.28 37.12 49.95 55.64.16-18.54 0-37.08.09-55.62 23.06.03 46.13 0 69.19.01.05 10.19-.04 20.38.05 30.58 22.41-.68 44.8.19 67.2-.33-.01-10.07 0-20.13-.01-30.2 10.22-.11 20.44-.02 30.66-.05 0 27.75.02 55.5-.01 83.25 2.43 0 4.87.01 7.32.02v-83.23c32.75-.05 65.5-.09 98.25.02 4.39-.08 7.36 4.26 7.16 8.35.1 17-.02 34 .06 50.99.04 2.79-.2 5.87-2.3 7.95-1.69 2.08-4.53 1.76-6.89 2.15-21.27-.66-42.59.28-63.88-.36-.33 8.09-.07 16.18-.15 24.27-23.41-.08-46.83.17-70.24-.13.06-11.55.01-23.1.03-34.65-22.43.05-44.86-.1-67.28.07.12 11.56-.01 23.12.06 34.68-10.41.06-20.82.02-31.24.02.02-28.1.01-56.2.01-84.3-2.12-.03-4.23-.03-6.34-.03v84.34c-13.32-.05-26.65.1-39.97-.08-17.8-21.23-36.02-42.11-53.73-63.41-.26 21.16-.04 42.32-.11 63.49-10.51-.02-21.01.04-31.51-.03-.27-31.18-.12-62.36-.17-93.54m300.5 25.87c-.01 5.41-.04 10.83.02 16.24 12.68-.06 25.36.02 38.04-.03 1.26.07 2.37-.64 3.51-1.09.13-4.94.34-9.91-.18-14.84-13.78-.63-27.6-.09-41.39-.28z" fill="#fff"/><g fill="#00529b"><path d="m360.88 161.12c159.49 0 318.97-.02 478.45.01v478.36c-159.48.02-318.96.01-478.45 0zm52.63 328.31c.05 31.18-.1 62.36.17 93.54 10.5.07 21 .01 31.51.03.07-21.17-.15-42.33.11-63.49 17.71 21.3 35.93 42.18 53.73 63.41 13.32.18 26.65.03 39.97.08v-84.34c2.11 0 4.22 0 6.34.03 0 28.1.01 56.2-.01 84.3 10.42 0 20.83.04 31.24-.02-.07-11.56.06-23.12-.06-34.68 22.42-.17 44.85-.02 67.28-.07-.02 11.55.03 23.1-.03 34.65 23.41.3 46.83.05 70.24.13.08-8.09-.18-16.18.15-24.27 21.29.64 42.61-.3 63.88.36 2.36-.39 5.2-.07 6.89-2.15 2.1-2.08 2.34-5.16 2.3-7.95-.08-16.99.04-33.99-.06-50.99.2-4.09-2.77-8.43-7.16-8.35-32.75-.11-65.5-.07-98.25-.02v83.23c-2.45-.01-4.89-.02-7.32-.02.03-27.75.01-55.5.01-83.25-10.22.03-20.44-.06-30.66.05.01 10.07 0 20.13.01 30.2-22.4.52-44.79-.35-67.2.33-.09-10.2 0-20.39-.05-30.58-23.06-.01-46.13.02-69.19-.01-.09 18.54.07 37.08-.09 55.62-16.67-18.52-33.28-37.11-49.95-55.64-14.61.19-29.2-.28-43.8-.13z"/><path d="m714.01 515.3c13.79.19 27.61-.35 41.39.28.52 4.93.31 9.9.18 14.84-1.14.45-2.25 1.16-3.51 1.09-12.68.05-25.36-.03-38.04.03-.06-5.41-.03-10.83-.02-16.24z"/></g></svg>