<svg id="Logo" data-name="Logo" xmlns="http://www.w3.org/2000/svg" viewBox="110.81 312.19 1463.78 181.13">
    <defs>
        <style>.cls-1,.cls-3{fill:#00853f;}.cls-2,.cls-4{fill:#f47b20;}.cls-1,.cls-2{fill-rule:evenodd;}</style>
    </defs>
    <title>SAL Colour Master LOGO</title>
    <polygon class="cls-1" points="110.81 312.19 291.93 312.19 110.81 493.32 110.81 312.19"/>
    <polygon class="cls-2" points="267.88 468.03 181.82 468.03 267.88 381.92 267.88 468.03"/>
    <path class="cls-3" d="M990.55,366.28H937.18c-9.86,0-14.75-4.38-14.75-13.06v-40.8h12V351.2c0,1.68.92,2.56,2.76,2.56h53.37Z"/>
    <path class="cls-3" d="M1006.77,366.28H994.83V312.42h11.94Z"/>
    <path class="cls-3" d="M1084.12,324.94h-55.88c-1.9,0-2.82.87-2.82,2.63v23.5c0,1.82.92,2.69,2.82,2.69h42.47c1.84,0,2.75-.87,2.75-2.56V333.36h12v19.86c0,8.68-4.9,13.06-14.75,13.06h-42.47c-9.85,0-14.75-4.38-14.75-13.2V325.55c0-8.75,4.9-13.13,14.75-13.13h55.88Z"/>
    <path class="cls-3" d="M1163.74,366.28h-11.94v-22h-47.68v22h-11.94V312.42h11.94v19.25h47.68V312.42h11.94Z"/>
    <path class="cls-3" d="M1238.46,324.94h-28.09v41.34h-11.94V324.94h-28.58V312.42h68.61Z"/>
    <path class="cls-3" d="M1256.51,366.28h-11.94V312.42h11.94Z"/>
    <path class="cls-3" d="M1333,366.28h-12.3c-6.79,0-11.14-2.29-15.12-7.61L1282.46,329c-1.71-2.22-4.35-4-7-4h-.61v41.34h-11.63V312.42h12.24c6.55,0,10.53,2.22,14.63,7.27l23.69,30c1.71,2.15,4.28,4,6.92,4h.61V312.42H1333Z"/>
    <path class="cls-3" d="M1409.76,324.94h-55.88c-1.9,0-2.82.87-2.82,2.63v23.5c0,1.82.92,2.69,2.82,2.69h42.47c1.84,0,2.76-.87,2.76-2.56V333.36h12v19.86c0,8.68-4.9,13.06-14.75,13.06h-42.47c-9.85,0-14.75-4.38-14.75-13.2V325.55c0-8.75,4.9-13.13,14.75-13.13h55.88Z"/>
    <path class="cls-3" d="M1000.34,429.69H986.57l-5.51-10.57H941.34L936,429.69H922.12l25.65-49.29c1.47-3,2.81-4.58,7.16-4.58h12.36a7.89,7.89,0,0,1,7.47,4.51Zm-41.56-41.34c-1.29,0-2.39.87-3.24,2.56l-8.38,16.36h28l-8.51-16.43c-.92-1.82-2-2.49-3.18-2.49Z"/>
    <path class="cls-4" d="M1091,388.34h-54c-1.9,0-2.81.67-2.81,2v4.17c0,1.28.92,2,2.81,2h40.88c9.79,0,14.69,4.31,14.69,12.86v7.34c0,8.69-4.9,13.06-14.69,13.06h-54V417.16h54c1.84,0,2.75-.61,2.75-1.89V410.9c0-1.28-.91-2-2.75-2h-40.88c-9.85,0-14.75-3.84-14.75-11.52v-8.48c0-8.75,4.9-13.13,14.75-13.13h54Z"/>
    <path class="cls-4" d="M1186.33,429.69h-11.38V388.34h-.61c-1.65,0-3.3,1.55-4,3.16l-17.93,38.18H1133.2l-18-38.18c-.73-1.61-2.45-3.16-4.1-3.16h-.61v41.34h-11.38V375.82H1111c7.77,0,12,2.76,15.48,10.3l14.32,31h3.92l14.2-30.84c3.55-7.68,8.08-10.5,15.3-10.5h12.06Z"/>
    <path class="cls-4" d="M1267.6,429.69h-13.77l-5.51-10.57H1208.6l-5.39,10.57h-13.83L1215,380.4c1.47-3,2.81-4.58,7.16-4.58h12.36a7.88,7.88,0,0,1,7.47,4.51ZM1226,388.34c-1.28,0-2.39.87-3.24,2.56l-8.39,16.36h28l-8.51-16.43c-.92-1.82-2-2.49-3.18-2.49Z"/>
    <path class="cls-4" d="M1343.73,393.8c0,9.09-4.71,13.67-14.14,13.67h-4.1l20.26,22.22h-16.52l-19-21.55h-27.6v21.55h-11.93V375.82h58.94q14.14,0,14.14,13.13Zm-61.14-5.45v8.55H1330c1.59,0,2.39-.74,2.39-2.16v-4.31c0-1.41-.92-2.09-2.75-2.09Z"/>
    <path class="cls-4" d="M1415.88,388.34h-28.09v41.34h-11.94V388.34h-28.58V375.82h68.61Z"/>
    <path class="cls-4" d="M1487.85,388.34H1434q-2.76,0-2.75,2.63v5.45h56.25v12.52h-56.25v5.52c0,1.82.92,2.69,2.75,2.69h54v12.52h-54c-9.85,0-14.75-4.38-14.75-13.2V388.95c0-8.75,4.9-13.13,14.75-13.13h53.86Z"/>
    <path class="cls-4" d="M1567.41,393.8c0,9.09-4.71,13.67-14.14,13.67h-4.1l20.26,22.22H1552.9l-19-21.55h-27.6v21.55h-11.93V375.82h58.94q14.14,0,14.14,13.13Zm-61.14-5.45v8.55h47.37c1.59,0,2.39-.74,2.39-2.16v-4.31c0-1.41-.92-2.09-2.76-2.09Z"/>
    <path class="cls-3" d="M990.43,451.75H937.18q-2.76,0-2.76,2.63v6.13h55.64V473H934.43v20.06h-12V452.36c0-8.75,4.9-13.13,14.75-13.13h53.25Z"/>
    <path class="cls-3" d="M1068.52,480c0,8.68-4.89,13.06-14.75,13.06h-43c-9.86,0-14.75-4.38-14.75-13.2V439.23H1008v39.32c0,1.35.92,2,2.82,2h43c1.83,0,2.75-.6,2.75-1.88V439.23h12Z"/>
    <path class="cls-3" d="M1141.71,451.75h-28.09v41.34h-11.93V451.75H1073.1V439.23h68.61Z"/>
    <path class="cls-3" d="M1218.76,480c0,8.68-4.89,13.06-14.75,13.06h-43c-9.85,0-14.75-4.38-14.75-13.2V439.23h11.93v39.32c0,1.35.92,2,2.82,2h43c1.84,0,2.75-.6,2.75-1.88V439.23h12Z"/>
    <path class="cls-3" d="M1298.26,457.21c0,9.09-4.71,13.67-14.14,13.67H1280l20.26,22.22h-16.52l-19-21.54h-27.6v21.54h-11.94V439.23h58.94q14.14,0,14.14,13.13Zm-61.14-5.45v8.55h47.37c1.59,0,2.39-.74,2.39-2.15v-4.31c0-1.41-.92-2.08-2.75-2.08Z"/>
    <path class="cls-3" d="M1372.55,451.75h-53.86q-2.75,0-2.75,2.63v5.45h56.25v12.52h-56.25v5.52c0,1.82.92,2.69,2.75,2.69h54v12.52h-54c-9.85,0-14.75-4.38-14.75-13.2V452.36c0-8.75,4.9-13.13,14.75-13.13h53.86Z"/>
    <path class="cls-3" d="M477.62,312.49H354c-10.52,0-19.4,3.91-26.76,11.66s-11,17.26-11,28.38v30q0,16.67,11,28.34A35.44,35.44,0,0,0,354,422.53h90.74a3.54,3.54,0,0,1,2.67,1.15,4.22,4.22,0,0,1,1.09,3v20.48c0,2.79-1.25,4-3.75,4H316.26s.06,29.94,0,31.5c-.36,10.66,9.52,10,9.52,10H448.49q15.72,0,26.72-11.86c7.31-7.91,11-18.81,11-29.66V422.53a40,40,0,0,0-11-28.35,35.42,35.42,0,0,0-26.72-11.65H357.7a3.39,3.39,0,0,1-2.63-1.17,3.84,3.84,0,0,1-1.08-2.79v-22.1a4,4,0,0,1,1.08-2.83,3.49,3.49,0,0,1,2.63-1.12h128.5s.1-29.41,0-31.2c.23-9.36-8.58-8.84-8.58-8.84"/>
    <path class="cls-3" d="M610.65,312.49H573.94s-7,1.15-10.45,9.16L495.24,492.73h45l10.44-26h85.26l10.66,26h44.19L623.29,320.5s-4.26-8.59-12.64-8M568.22,423.54,593.3,358l26.08,65.53Z"/>
    <path class="cls-3" d="M752.81,451.21V312.49h-45.2V451.21c-.46,6.24.76,40.93,23.63,41.53h119V451.21Z"/>
    <path class="cls-3" d="M1382.6,441.46v10.77h-3.32V441.46h-3.85v-2.67h11v2.67Zm18,10.77V444.3l-2.8,4.94h-2.94l-2.8-4.94v7.93h-3.32V438.79h3.32l4.27,7.18,4.27-7.18h3.32v13.44Z"/>
</svg>